<svg width="188" height="188" viewBox="0 0 188 188" fill="none" xmlns="http://www.w3.org/2000/svg">
<path d="M94 181C135.974 181 170 146.974 170 105C170 63.0264 135.974 29 94 29C52.0264 29 18 63.0264 18 105C18 146.974 52.0264 181 94 181Z" fill="#8EDFEB"/>
<path d="M86.2237 134C84.4856 134.003 82.7937 133.448 81.4031 132.419L81.3168 132.355L63.1596 118.645C62.3187 118.008 61.613 117.215 61.0828 116.309C60.5526 115.404 60.2082 114.404 60.0695 113.367C59.9307 112.33 60.0002 111.276 60.274 110.266C60.5478 109.256 61.0206 108.308 61.6653 107.478C62.31 106.648 63.114 105.952 64.0315 105.428C64.9489 104.905 65.9618 104.565 67.0123 104.428C68.0628 104.291 69.1303 104.36 70.154 104.63C71.1776 104.9 72.1373 105.367 72.9782 106.003L84.739 114.905L112.53 79.1175C113.175 78.2877 113.978 77.5914 114.895 77.0683C115.813 76.5452 116.825 76.2055 117.875 76.0686C118.925 75.9316 119.992 76.0002 121.015 76.2704C122.039 76.5406 122.998 77.007 123.839 77.6431L123.841 77.6448L123.668 77.8813L123.846 77.6448C125.541 78.9313 126.651 80.8293 126.931 82.9224C127.21 85.0154 126.637 87.1325 125.337 88.809L92.6488 130.885C91.8926 131.854 90.9202 132.639 89.8072 133.177C88.6942 133.716 87.4704 133.994 86.2308 133.991L86.2237 134Z" fill="white"/>
<path opacity="0.6" d="M57 11C60.3137 11 63 8.53757 63 5.5C63 2.46243 60.3137 0 57 0C53.6863 0 51 2.46243 51 5.5C51 8.53757 53.6863 11 57 11Z" fill="#8EDFEB"/>
<path opacity="0.5" d="M184.5 188C186.433 188 188 186.433 188 184.5C188 182.567 186.433 181 184.5 181C182.567 181 181 182.567 181 184.5C181 186.433 182.567 188 184.5 188Z" fill="#8EDFEB"/>
<path opacity="0.25" d="M3.5 152C5.433 152 7 150.433 7 148.5C7 146.567 5.433 145 3.5 145C1.567 145 0 146.567 0 148.5C0 150.433 1.567 152 3.5 152Z" fill="#8EDFEB"/>
</svg>
