<svg width="20" height="20" viewBox="0 0 20 20" fill="none" xmlns="http://www.w3.org/2000/svg">
<g clip-path="url(#clip0_13_197)">
<path d="M4.16663 12.5H3.33329C2.89127 12.5 2.46734 12.3244 2.15478 12.0118C1.84222 11.6992 1.66663 11.2753 1.66663 10.8333V3.33329C1.66663 2.89127 1.84222 2.46734 2.15478 2.15478C2.46734 1.84222 2.89127 1.66663 3.33329 1.66663H10.8333C11.2753 1.66663 11.6992 1.84222 12.0118 2.15478C12.3244 2.46734 12.5 2.89127 12.5 3.33329V4.16663M9.16663 7.49996H16.6666C17.5871 7.49996 18.3333 8.24615 18.3333 9.16663V16.6666C18.3333 17.5871 17.5871 18.3333 16.6666 18.3333H9.16663C8.24615 18.3333 7.49996 17.5871 7.49996 16.6666V9.16663C7.49996 8.24615 8.24615 7.49996 9.16663 7.49996Z" stroke="#101828" stroke-width="1.6" stroke-linecap="round" stroke-linejoin="round"/>
</g>
<defs>
<clipPath id="clip0_13_197">
<rect width="20" height="20" fill="white"/>
</clipPath>
</defs>
</svg>
