<svg width="428" height="861" viewBox="0 0 428 861" fill="none" xmlns="http://www.w3.org/2000/svg">
<path d="M-143 134.792C-140.294 127.159 -134.958 121.452 -129.015 115.2C-103.142 87.978 -71.9794 64.3576 -36.8822 45.917C36.8029 7.2016 125.202 -12.4731 208.876 14.4007C256.707 29.763 309.185 63.8931 316.46 109.924C320.591 136.065 305.819 158.752 284.771 177.035C262.215 196.628 233.038 212.261 201.595 219.101C177.279 224.391 134.965 225.322 132.299 196.229C130.82 180.092 140.395 164.898 151.678 152.611C175.184 127.016 209.301 111.561 245.488 102.522C308.39 86.8105 375.552 92.9323 430.013 124.685C450.708 136.75 492.499 172.522 507 194.832" stroke="#8EDFEB" stroke-width="4" stroke-linecap="round" stroke-linejoin="round"/>
<path d="M133 883.792C135.706 876.159 141.042 870.452 146.985 864.2C172.858 836.978 204.021 813.358 239.118 794.917C312.803 756.202 401.202 736.527 484.876 763.401C532.707 778.763 585.185 812.893 592.46 858.924C596.591 885.065 581.819 907.752 560.771 926.035C538.215 945.628 509.038 961.261 477.595 968.101C453.279 973.391 410.965 974.322 408.299 945.229C406.82 929.092 416.395 913.898 427.678 901.611C451.184 876.016 485.301 860.561 521.488 851.522C584.39 835.811 651.552 841.932 706.013 873.685C726.708 885.75 768.499 921.522 783 943.832" stroke="#8EDFEB" stroke-width="4" stroke-linecap="round" stroke-linejoin="round"/>
</svg>
