<svg width="297" height="112" viewBox="0 0 297 112" fill="none" xmlns="http://www.w3.org/2000/svg">
<path d="M2 134.792C4.70591 127.159 10.0425 121.452 15.9849 115.2C41.8576 87.978 73.0206 64.3576 108.118 45.917C181.803 7.2016 270.202 -12.4731 353.876 14.4007C401.707 29.763 454.185 63.8931 461.46 109.924C465.591 136.065 450.819 158.752 429.771 177.035C407.215 196.628 378.038 212.261 346.595 219.101C322.279 224.391 279.965 225.322 277.299 196.229C275.82 180.092 285.395 164.898 296.678 152.611C320.184 127.016 354.301 111.561 390.488 102.522C453.39 86.8105 520.552 92.9323 575.013 124.685C595.708 136.75 637.499 172.522 652 194.832" stroke="#8EDFEB" stroke-width="4" stroke-linecap="round" stroke-linejoin="round"/>
</svg>
