<svg width="188" height="188" viewBox="0 0 188 188" fill="none" xmlns="http://www.w3.org/2000/svg">
<path d="M93 181C134.974 181 169 146.974 169 105C169 63.0264 134.974 29 93 29C51.0264 29 17 63.0264 17 105C17 146.974 51.0264 181 93 181Z" fill="#8EDFEB"/>
<rect x="85" y="61" width="8" height="58" rx="4" fill="white"/>
<rect x="84" y="118.245" width="8" height="58" rx="4" transform="rotate(-62.9113 84 118.245)" fill="white"/>
<path opacity="0.6" d="M57 11C60.3137 11 63 8.53757 63 5.5C63 2.46243 60.3137 0 57 0C53.6863 0 51 2.46243 51 5.5C51 8.53757 53.6863 11 57 11Z" fill="#8EDFEB"/>
<path opacity="0.5" d="M184.5 188C186.433 188 188 186.433 188 184.5C188 182.567 186.433 181 184.5 181C182.567 181 181 182.567 181 184.5C181 186.433 182.567 188 184.5 188Z" fill="#8EDFEB"/>
<path opacity="0.25" d="M3.5 152C5.433 152 7 150.433 7 148.5C7 146.567 5.433 145 3.5 145C1.567 145 0 146.567 0 148.5C0 150.433 1.567 152 3.5 152Z" fill="#8EDFEB"/>
</svg>
